<svg width="16" height="14" viewBox="0 0 16 14" fill="none" xmlns="http://www.w3.org/2000/svg">
<path fill-rule="evenodd" clip-rule="evenodd" d="M11.2424 0C13.6331 0 15.4359 1.95067 15.4359 4.53743V9.4683C15.4359 10.7922 14.9678 11.9883 14.117 12.8369C13.3538 13.5972 12.3638 14 11.2538 14H4.17989C3.0721 14 2.08277 13.5979 1.31887 12.8369C0.468102 11.9883 0 10.7922 0 9.4683V4.53743C0 1.95067 1.80277 0 4.19354 0H11.2424ZM11.2424 1.07692H4.19354C2.3879 1.07692 1.07692 2.5322 1.07692 4.53743V9.4683C1.07692 10.5043 1.43302 11.4297 2.07918 12.0737C2.63631 12.6301 3.36359 12.9231 4.18205 12.9231H11.2424C11.2438 12.9216 11.2495 12.9231 11.2538 12.9231C12.073 12.9231 12.7996 12.6301 13.3567 12.0737C14.0036 11.4297 14.359 10.5043 14.359 9.4683V4.53743C14.359 2.5322 13.048 1.07692 11.2424 1.07692ZM12.3738 4.40016C12.5612 4.63062 12.526 4.96949 12.2956 5.1576L9.10502 7.75083C8.70153 8.07103 8.21907 8.23113 7.73733 8.23113C7.25702 8.23113 6.77815 8.07247 6.37753 7.75513L3.15754 5.15903C2.92564 4.97237 2.88974 4.63278 3.07569 4.4016C3.26307 4.17114 3.60195 4.13452 3.83313 4.32047L7.05025 6.9137C7.45446 7.2339 8.02379 7.2339 8.43087 6.91083L11.6157 4.3219C11.8469 4.13308 12.1857 4.16898 12.3738 4.40016Z" fill="#828282"/>
</svg>
