<svg width="11" height="9" viewBox="0 0 11 9" fill="none" xmlns="http://www.w3.org/2000/svg">
<path d="M6.05133 2.27536V0.561818C6.05133 0.412815 6.10929 0.269914 6.21246 0.164553C6.31562 0.0591914 6.45554 0 6.60144 0C6.74576 0.000620597 6.88406 0.0591347 6.98652 0.162927L10.8373 4.09566C10.8888 4.14788 10.9298 4.21002 10.9577 4.27849C10.9856 4.34695 11 4.42038 11 4.49455C11 4.56871 10.9856 4.64215 10.9577 4.71061C10.9298 4.77907 10.8888 4.84121 10.8373 4.89344L6.98652 8.82617C6.90929 8.90348 6.81147 8.95583 6.70527 8.97667C6.59908 8.99752 6.48922 8.98594 6.38943 8.94338C6.28965 8.90081 6.20436 8.82916 6.14422 8.73737C6.08409 8.64557 6.05178 8.53772 6.05133 8.42728V6.68564H5.58374C4.71461 6.6724 3.85308 6.85248 3.05893 7.21338C2.26478 7.57428 1.55704 8.10736 0.984834 8.77561C0.915876 8.86936 0.819921 8.93873 0.71042 8.974C0.600918 9.00926 0.483356 9.00864 0.374213 8.97224C0.263144 8.93396 0.16695 8.86045 0.0996609 8.76242C0.0323706 8.66439 -0.00249767 8.54697 0.000139236 8.42728C0.000139236 3.30349 4.44502 2.42706 6.05133 2.27536ZM5.58374 5.55077C5.95168 5.54959 6.31927 5.57399 6.68396 5.6238C6.81419 5.64398 6.93301 5.71122 7.01882 5.81328C7.10463 5.91535 7.15172 6.04548 7.15155 6.18V7.07329L9.67105 4.49455L7.15155 1.9158V2.80909C7.15155 2.9581 7.09359 3.101 6.99043 3.20636C6.88726 3.31172 6.74734 3.37091 6.60144 3.37091C6.10084 3.37091 2.14006 3.48327 1.28189 6.9834C2.52751 6.04548 4.03619 5.54305 5.58374 5.55077Z" fill="#828282" fill-opacity="0.7"/>
</svg>
