<svg width="12" height="14" viewBox="0 0 12 14" fill="none" xmlns="http://www.w3.org/2000/svg">
<path d="M4.43552 12.0595C4.77859 11.9855 6.86911 11.9855 7.21219 12.0595C7.50548 12.1286 7.82263 12.2901 7.82263 12.6426C7.80558 12.9782 7.61256 13.2757 7.34587 13.4646C7.00007 13.7396 6.59424 13.9137 6.17 13.9765C5.93537 14.0075 5.70483 14.0082 5.47839 13.9765C5.05346 13.9137 4.64764 13.7396 4.30251 13.4639C4.03515 13.2757 3.84212 12.9782 3.82507 12.6426C3.82507 12.2901 4.14223 12.1286 4.43552 12.0595ZM5.86437 0C7.29192 0 8.75017 0.690913 9.61639 1.83727C10.1784 2.57541 10.4362 3.31286 10.4362 4.45921V4.75743C10.4362 5.63658 10.664 6.15477 11.1654 6.75192C11.5453 7.19184 11.6667 7.75656 11.6667 8.36922C11.6667 8.98117 11.4696 9.5621 11.0746 10.0338C10.5576 10.5992 9.82851 10.9601 9.08438 11.0229C8.00604 11.1167 6.92702 11.1956 5.83367 11.1956C4.73965 11.1956 3.66131 11.1484 2.58297 11.0229C1.83816 10.9601 1.10903 10.5992 0.592712 10.0338C0.197798 9.5621 0 8.98117 0 8.36922C0 7.75656 0.122089 7.19184 0.501315 6.75192C1.01832 6.15477 1.23112 5.63658 1.23112 4.75743V4.45921C1.23112 3.28184 1.51895 2.51196 2.11166 1.7583C2.99289 0.659188 4.40544 0 5.80298 0H5.86437Z" fill="#F98121"/>
</svg>
