<svg width="11" height="11" viewBox="0 0 11 11" fill="none" xmlns="http://www.w3.org/2000/svg">
<path d="M10.6411 5.79032C10.8721 5.494 11 5.13094 11 4.75319C11 4.15387 10.6549 3.58659 10.0994 3.27024C9.95637 3.18881 9.79354 3.14596 9.62775 3.14611H6.3305L6.413 1.50565C6.43225 1.10922 6.28788 0.732809 6.00738 0.445829C5.86972 0.304379 5.70364 0.191836 5.51941 0.115156C5.33518 0.0384751 5.1367 -0.00071413 4.93625 9.85095e-06C4.22125 9.85095e-06 3.58875 0.467186 3.399 1.13591L2.21787 5.28711H0.44C0.196625 5.28711 0 5.47798 0 5.71424V10.5729C0 10.8091 0.196625 11 0.44 11H8.70788C8.83437 11 8.95813 10.976 9.07225 10.9279C9.72675 10.657 10.1489 10.0363 10.1489 9.34753C10.1489 9.17935 10.1241 9.01383 10.0746 8.85366C10.3056 8.55734 10.4335 8.19427 10.4335 7.81653C10.4335 7.64835 10.4088 7.48283 10.3593 7.32266C10.5903 7.02633 10.7181 6.66327 10.7181 6.28553C10.7154 6.11734 10.6906 5.9505 10.6411 5.79032ZM0.99 10.039V6.24815H2.10375V10.039H0.99ZM9.7405 5.32715L9.43937 5.58076L9.6305 5.9198C9.69347 6.03148 9.72612 6.15688 9.72538 6.28419C9.72538 6.50443 9.62638 6.71399 9.45588 6.85815L9.15475 7.11176L9.34587 7.4508C9.40884 7.56248 9.44149 7.68788 9.44075 7.8152C9.44075 8.03544 9.34175 8.245 9.17125 8.38915L8.87012 8.64276L9.06125 8.9818C9.12422 9.09348 9.15687 9.21888 9.15613 9.3462C9.15613 9.64519 8.97462 9.91482 8.69413 10.0376H2.98375V6.20544L4.35187 1.39353C4.38715 1.27019 4.46288 1.16138 4.56759 1.08359C4.6723 1.00579 4.80027 0.963241 4.93213 0.962392C5.03662 0.962392 5.13975 0.991758 5.22225 1.05182C5.35837 1.1506 5.43125 1.30009 5.423 1.45893L5.291 4.10715H9.614C9.85875 4.25265 10.01 4.49825 10.01 4.75319C10.01 4.97343 9.911 5.18166 9.7405 5.32715Z" fill="#828282" fill-opacity="0.7"/>
</svg>
