<svg width="12" height="13" viewBox="0 0 12 13" fill="none" xmlns="http://www.w3.org/2000/svg">
<path d="M4.19039 11.8568V9.92565C4.19039 9.43267 4.59295 9.03304 5.08954 9.03304H6.90481C7.14328 9.03304 7.37198 9.12708 7.5406 9.29448C7.70923 9.46188 7.80396 9.68892 7.80396 9.92565V11.8568C7.80245 12.0618 7.88341 12.2589 8.02887 12.4043C8.17432 12.5498 8.37224 12.6316 8.5787 12.6316H9.81716C10.3956 12.6331 10.9508 12.406 11.3603 12.0005C11.7698 11.595 12 11.0444 12 10.4702V4.96854C12 4.50471 11.7929 4.06474 11.4345 3.76716L7.22149 0.426865C6.48863 -0.158803 5.4386 -0.139893 4.72762 0.471776L0.610745 3.76716C0.235415 4.05597 0.0110857 4.49724 0 4.96854V10.4646C0 11.6614 0.977294 12.6316 2.18285 12.6316H3.39303C3.82183 12.6316 4.17031 12.2881 4.17342 11.8625L4.19039 11.8568Z" fill="#F98121"/>
</svg>
